<mxfile host="app.diagrams.net" modified="2022-04-26T18:23:16.459Z" agent="5.0 (Windows NT 10.0; Win64; x64) AppleWebKit/537.36 (KHTML, like Gecko) Chrome/100.0.4896.127 Safari/537.36" etag="uQeJX7sRsMJx5jKGddKx" version="17.4.6" type="github">
  <diagram id="prtHgNgQTEPvFCAcTncT" name="Page-1">
    <mxGraphModel dx="2462" dy="917" grid="1" gridSize="10" guides="1" tooltips="1" connect="1" arrows="1" fold="1" page="1" pageScale="1" pageWidth="827" pageHeight="1169" math="0" shadow="0">
      <root>
        <mxCell id="0" />
        <mxCell id="1" parent="0" />
        <mxCell id="NDbgRDtyCS-DEbRtZn2b-18" style="edgeStyle=orthogonalEdgeStyle;rounded=0;orthogonalLoop=1;jettySize=auto;html=1;entryX=0.5;entryY=0;entryDx=0;entryDy=0;fontFamily=Helvetica;fontSize=12;" edge="1" parent="1" source="NDbgRDtyCS-DEbRtZn2b-1" target="NDbgRDtyCS-DEbRtZn2b-2">
          <mxGeometry relative="1" as="geometry" />
        </mxCell>
        <mxCell id="NDbgRDtyCS-DEbRtZn2b-19" style="edgeStyle=orthogonalEdgeStyle;rounded=0;orthogonalLoop=1;jettySize=auto;html=1;entryX=0.5;entryY=0;entryDx=0;entryDy=0;fontFamily=Helvetica;fontSize=12;" edge="1" parent="1" source="NDbgRDtyCS-DEbRtZn2b-1" target="NDbgRDtyCS-DEbRtZn2b-3">
          <mxGeometry relative="1" as="geometry" />
        </mxCell>
        <mxCell id="NDbgRDtyCS-DEbRtZn2b-1" value="SHERIFF" style="rounded=0;whiteSpace=wrap;html=1;" vertex="1" parent="1">
          <mxGeometry x="353" y="80" width="120" height="60" as="geometry" />
        </mxCell>
        <mxCell id="NDbgRDtyCS-DEbRtZn2b-28" style="edgeStyle=orthogonalEdgeStyle;rounded=0;orthogonalLoop=1;jettySize=auto;html=1;exitX=0.5;exitY=1;exitDx=0;exitDy=0;entryX=0.5;entryY=0;entryDx=0;entryDy=0;fontFamily=Helvetica;fontSize=12;" edge="1" parent="1" source="NDbgRDtyCS-DEbRtZn2b-2" target="NDbgRDtyCS-DEbRtZn2b-6">
          <mxGeometry relative="1" as="geometry" />
        </mxCell>
        <mxCell id="NDbgRDtyCS-DEbRtZn2b-29" style="edgeStyle=orthogonalEdgeStyle;rounded=0;orthogonalLoop=1;jettySize=auto;html=1;exitX=0.5;exitY=1;exitDx=0;exitDy=0;entryX=0.5;entryY=0;entryDx=0;entryDy=0;fontFamily=Helvetica;fontSize=12;" edge="1" parent="1" source="NDbgRDtyCS-DEbRtZn2b-2" target="NDbgRDtyCS-DEbRtZn2b-9">
          <mxGeometry relative="1" as="geometry">
            <Array as="points">
              <mxPoint x="136" y="480" />
              <mxPoint x="293" y="480" />
            </Array>
          </mxGeometry>
        </mxCell>
        <mxCell id="NDbgRDtyCS-DEbRtZn2b-30" style="edgeStyle=orthogonalEdgeStyle;rounded=0;orthogonalLoop=1;jettySize=auto;html=1;exitX=0.5;exitY=1;exitDx=0;exitDy=0;entryX=0.5;entryY=0;entryDx=0;entryDy=0;fontFamily=Helvetica;fontSize=12;" edge="1" parent="1" source="NDbgRDtyCS-DEbRtZn2b-2" target="NDbgRDtyCS-DEbRtZn2b-8">
          <mxGeometry relative="1" as="geometry">
            <Array as="points">
              <mxPoint x="136" y="480" />
              <mxPoint x="-27" y="480" />
            </Array>
          </mxGeometry>
        </mxCell>
        <mxCell id="NDbgRDtyCS-DEbRtZn2b-31" style="edgeStyle=orthogonalEdgeStyle;rounded=0;orthogonalLoop=1;jettySize=auto;html=1;exitX=1;exitY=0.5;exitDx=0;exitDy=0;entryX=0.5;entryY=0;entryDx=0;entryDy=0;fontFamily=Helvetica;fontSize=12;" edge="1" parent="1" source="NDbgRDtyCS-DEbRtZn2b-2" target="NDbgRDtyCS-DEbRtZn2b-17">
          <mxGeometry relative="1" as="geometry" />
        </mxCell>
        <mxCell id="NDbgRDtyCS-DEbRtZn2b-2" value="&lt;span class=&quot;text-strong&quot; style=&quot;color: rgb(65 , 65 , 65) ; background-color: rgb(255 , 255 , 255)&quot;&gt;&lt;font style=&quot;font-size: 12px&quot;&gt;PATROL OPERATIONS&lt;/font&gt;&lt;/span&gt;" style="rounded=0;whiteSpace=wrap;html=1;" vertex="1" parent="1">
          <mxGeometry x="76" y="220" width="120" height="60" as="geometry" />
        </mxCell>
        <mxCell id="NDbgRDtyCS-DEbRtZn2b-22" style="edgeStyle=orthogonalEdgeStyle;rounded=0;orthogonalLoop=1;jettySize=auto;html=1;fontFamily=Helvetica;fontSize=12;" edge="1" parent="1" source="NDbgRDtyCS-DEbRtZn2b-3">
          <mxGeometry relative="1" as="geometry">
            <mxPoint x="530" y="300" as="targetPoint" />
          </mxGeometry>
        </mxCell>
        <mxCell id="NDbgRDtyCS-DEbRtZn2b-23" style="edgeStyle=orthogonalEdgeStyle;rounded=0;orthogonalLoop=1;jettySize=auto;html=1;fontFamily=Helvetica;fontSize=12;" edge="1" parent="1" source="NDbgRDtyCS-DEbRtZn2b-3">
          <mxGeometry relative="1" as="geometry">
            <mxPoint x="780" y="300" as="targetPoint" />
          </mxGeometry>
        </mxCell>
        <mxCell id="NDbgRDtyCS-DEbRtZn2b-3" value="&lt;span class=&quot;text-strong&quot; style=&quot;color: rgb(65 , 65 , 65) ; background-color: rgb(255 , 255 , 255)&quot;&gt;&lt;font style=&quot;font-size: 12px&quot;&gt;COUNTYWIDE OPERATIONS&lt;/font&gt;&lt;/span&gt;" style="rounded=0;whiteSpace=wrap;html=1;" vertex="1" parent="1">
          <mxGeometry x="593" y="220" width="120" height="60" as="geometry" />
        </mxCell>
        <mxCell id="NDbgRDtyCS-DEbRtZn2b-24" style="edgeStyle=orthogonalEdgeStyle;rounded=0;orthogonalLoop=1;jettySize=auto;html=1;exitX=0.5;exitY=1;exitDx=0;exitDy=0;entryX=0.5;entryY=0;entryDx=0;entryDy=0;fontFamily=Helvetica;fontSize=12;" edge="1" parent="1" source="NDbgRDtyCS-DEbRtZn2b-4" target="NDbgRDtyCS-DEbRtZn2b-14">
          <mxGeometry relative="1" as="geometry" />
        </mxCell>
        <mxCell id="NDbgRDtyCS-DEbRtZn2b-4" value="&lt;font color=&quot;#414141&quot;&gt;&lt;span style=&quot;background-color: rgb(255 , 255 , 255)&quot;&gt;DETECTIVE&lt;br&gt;DIVISION&lt;br&gt;&lt;/span&gt;&lt;/font&gt;" style="rounded=0;whiteSpace=wrap;html=1;" vertex="1" parent="1">
          <mxGeometry x="473" y="300" width="120" height="60" as="geometry" />
        </mxCell>
        <mxCell id="NDbgRDtyCS-DEbRtZn2b-25" style="edgeStyle=orthogonalEdgeStyle;rounded=0;orthogonalLoop=1;jettySize=auto;html=1;exitX=0.5;exitY=1;exitDx=0;exitDy=0;entryX=0.5;entryY=0;entryDx=0;entryDy=0;fontFamily=Helvetica;fontSize=12;" edge="1" parent="1" source="NDbgRDtyCS-DEbRtZn2b-5" target="NDbgRDtyCS-DEbRtZn2b-10">
          <mxGeometry relative="1" as="geometry" />
        </mxCell>
        <mxCell id="NDbgRDtyCS-DEbRtZn2b-5" value="&lt;span class=&quot;text-strong&quot; style=&quot;color: rgb(65 , 65 , 65) ; background-color: rgb(255 , 255 , 255)&quot;&gt;&lt;font style=&quot;font-size: 12px&quot;&gt;SPEC OPS&lt;br&gt;DIVISION&lt;br&gt;&lt;/font&gt;&lt;/span&gt;" style="rounded=0;whiteSpace=wrap;html=1;" vertex="1" parent="1">
          <mxGeometry x="720" y="300" width="120" height="60" as="geometry" />
        </mxCell>
        <mxCell id="NDbgRDtyCS-DEbRtZn2b-6" value="&lt;span class=&quot;text-strong&quot; style=&quot;color: rgb(65 , 65 , 65) ; background-color: rgb(255 , 255 , 255)&quot;&gt;&lt;font style=&quot;font-size: 12px&quot;&gt;PALETO&lt;/font&gt;&lt;/span&gt;" style="rounded=0;whiteSpace=wrap;html=1;" vertex="1" parent="1">
          <mxGeometry x="76" y="520" width="120" height="60" as="geometry" />
        </mxCell>
        <mxCell id="NDbgRDtyCS-DEbRtZn2b-8" value="&lt;span style=&quot;color: rgb(65 , 65 , 65) ; background-color: rgb(255 , 255 , 255)&quot;&gt;&lt;font style=&quot;font-size: 12px&quot;&gt;SANDY SHORES&lt;/font&gt;&lt;/span&gt;" style="rounded=0;whiteSpace=wrap;html=1;" vertex="1" parent="1">
          <mxGeometry x="-87" y="520" width="120" height="60" as="geometry" />
        </mxCell>
        <mxCell id="NDbgRDtyCS-DEbRtZn2b-9" value="&lt;span class=&quot;text-strong&quot; style=&quot;color: rgb(65 , 65 , 65) ; background-color: rgb(255 , 255 , 255)&quot;&gt;&lt;font style=&quot;font-size: 12px&quot;&gt;VINEWOOD&lt;/font&gt;&lt;/span&gt;" style="rounded=0;whiteSpace=wrap;html=1;" vertex="1" parent="1">
          <mxGeometry x="233" y="520" width="120" height="60" as="geometry" />
        </mxCell>
        <mxCell id="NDbgRDtyCS-DEbRtZn2b-26" style="edgeStyle=orthogonalEdgeStyle;rounded=0;orthogonalLoop=1;jettySize=auto;html=1;exitX=0.5;exitY=1;exitDx=0;exitDy=0;entryX=0.5;entryY=0;entryDx=0;entryDy=0;fontFamily=Helvetica;fontSize=12;" edge="1" parent="1" source="NDbgRDtyCS-DEbRtZn2b-10" target="NDbgRDtyCS-DEbRtZn2b-12">
          <mxGeometry relative="1" as="geometry" />
        </mxCell>
        <mxCell id="NDbgRDtyCS-DEbRtZn2b-10" value="&lt;font color=&quot;#414141&quot;&gt;&lt;span style=&quot;background-color: rgb(255 , 255 , 255)&quot;&gt;AB&lt;/span&gt;&lt;/font&gt;" style="rounded=0;whiteSpace=wrap;html=1;" vertex="1" parent="1">
          <mxGeometry x="720" y="379" width="120" height="60" as="geometry" />
        </mxCell>
        <mxCell id="NDbgRDtyCS-DEbRtZn2b-12" value="SERB" style="rounded=0;whiteSpace=wrap;html=1;fontFamily=Helvetica;fontSize=12;" vertex="1" parent="1">
          <mxGeometry x="720" y="460" width="120" height="60" as="geometry" />
        </mxCell>
        <mxCell id="NDbgRDtyCS-DEbRtZn2b-14" value="RSVRB" style="rounded=0;whiteSpace=wrap;html=1;fontFamily=Helvetica;fontSize=12;" vertex="1" parent="1">
          <mxGeometry x="473" y="379" width="120" height="60" as="geometry" />
        </mxCell>
        <mxCell id="NDbgRDtyCS-DEbRtZn2b-33" style="edgeStyle=orthogonalEdgeStyle;rounded=0;orthogonalLoop=1;jettySize=auto;html=1;exitX=0.5;exitY=1;exitDx=0;exitDy=0;entryX=0.5;entryY=0;entryDx=0;entryDy=0;fontFamily=Helvetica;fontSize=12;" edge="1" parent="1" source="NDbgRDtyCS-DEbRtZn2b-17" target="NDbgRDtyCS-DEbRtZn2b-32">
          <mxGeometry relative="1" as="geometry" />
        </mxCell>
        <mxCell id="NDbgRDtyCS-DEbRtZn2b-17" value="&lt;br&gt;&lt;table cellpadding=&quot;0&quot; cellspacing=&quot;0&quot; width=&quot;100%&quot; border=&quot;0&quot; style=&quot;border-collapse: collapse ; border-spacing: 0px ; color: rgb(65 , 65 , 65) ; font-style: normal ; letter-spacing: normal ; text-transform: none ; word-spacing: 0px ; border-color: rgb(0 , 0 , 0)&quot;&gt;&lt;tbody&gt;&lt;tr style=&quot;background-color: white&quot;&gt;&lt;td style=&quot;padding: 0px&quot;&gt;&lt;center&gt;ADMINISTRATIVE BUREAU&lt;br&gt;&lt;/center&gt;&lt;/td&gt;&lt;/tr&gt;&lt;/tbody&gt;&lt;/table&gt;&lt;font size=&quot;3&quot;&gt;&lt;br&gt;&lt;/font&gt;" style="rounded=0;whiteSpace=wrap;html=1;fontFamily=Helvetica;fontSize=12;" vertex="1" parent="1">
          <mxGeometry x="233" y="300" width="120" height="60" as="geometry" />
        </mxCell>
        <mxCell id="NDbgRDtyCS-DEbRtZn2b-32" value="FLEET MANAGEMENT&lt;font size=&quot;3&quot;&gt;&lt;br&gt;&lt;/font&gt;" style="rounded=0;whiteSpace=wrap;html=1;fontFamily=Helvetica;fontSize=12;" vertex="1" parent="1">
          <mxGeometry x="232" y="379" width="120" height="60" as="geometry" />
        </mxCell>
      </root>
    </mxGraphModel>
  </diagram>
</mxfile>
